# xmcd
#
# Track frame offsets: 
#        150
#        24606
#        41256
#        62145
#        77546
#        95217
#        113508
#        141785
#        159807
#        182104
#
# Disc length: 2651 seconds
#
# Revision: 2
# Processed by: cddbd v1.5.2PL0 Copyright (c) Steve Scherf et al.
# Submitted via: ExactAudioCopy v1.3
#
DISCID=760a590a
DTITLE=Shintaro Sakamoto - Love If Possible Disk 2
DYEAR=2016
DGENRE=
TTITLE0=Love If Possible (inst)
TTITLE1=Tournament Of Macho Men (inst)
TTITLE2=Another Planet (inst)
TTITLE3=Purging The Demons (inst)
TTITLE4=Like An Animal (inst)
TTITLE5=Feeling Immortal (inst)
TTITLE6=Others (inst)
TTITLE7=Foolish Situation (inst)
TTITLE8=Disco Is (inst)
TTITLE9=Presence (inst)
EXTD=
EXTT0=
EXTT1=
EXTT2=
EXTT3=
EXTT4=
EXTT5=
EXTT6=
EXTT7=
EXTT8=
EXTT9=
PLAYORDER=
